<svg width="16" height="18" viewBox="0 0 16 18" fill="none" xmlns="http://www.w3.org/2000/svg">
<path d="M3.83333 8.99999H5.5V10.6667H3.83333V8.99999Z" fill="#252837"/>
<path d="M3.83333 12.3333H5.5V14H3.83333V12.3333Z" fill="#252837"/>
<path d="M8.83333 8.99999H7.16667V10.6667H8.83333V8.99999Z" fill="#252837"/>
<path d="M7.16667 12.3333H8.83333V14H7.16667V12.3333Z" fill="#252837"/>
<path d="M12.1667 8.99999H10.5V10.6667H12.1667V8.99999Z" fill="#252837"/>
<path d="M10.5 12.3333H12.1667V14H10.5V12.3333Z" fill="#252837"/>
<path fill-rule="evenodd" clip-rule="evenodd" d="M13.8333 17.3333H2.16667C1.2475 17.3333 0.5 16.5858 0.5 15.6667V3.99999C0.5 3.08082 1.2475 2.33332 2.16667 2.33332H3.83333V0.666656H5.5V2.33332H10.5V0.666656H12.1667V2.33332H13.8333C14.7525 2.33332 15.5 3.08082 15.5 3.99999V15.6667C15.5 16.5858 14.7525 17.3333 13.8333 17.3333ZM13.8335 5.66666L13.8333 3.99999H2.16667V5.66666H13.8335ZM13.8336 7.33332L13.8342 15.6667H2.16667V7.33332H13.8336Z" fill="#252837"/>
</svg>
