<svg width="20" height="20" viewBox="0 0 20 20" fill="none" xmlns="http://www.w3.org/2000/svg">
<path d="M11 8.83V15H9V8.83L6.41 11.41L5 10L10 5L15 10L13.59 11.41L11 8.83Z" fill="#252837"/>
<path fill-rule="evenodd" clip-rule="evenodd" d="M10 20C4.47715 20 -2.41411e-07 15.5228 0 10C2.41411e-07 4.47715 4.47715 -2.41411e-07 10 0C15.5228 2.41411e-07 20 4.47715 20 10C20 15.5228 15.5228 20 10 20ZM10 18C5.58172 18 2 14.4183 2 10C2 5.58172 5.58172 2 10 2C14.4183 2 18 5.58172 18 10C18 14.4183 14.4183 18 10 18Z" fill="#252837"/>
</svg>
