<svg width="16" height="16" viewBox="0 0 16 16" fill="none" xmlns="http://www.w3.org/2000/svg">
<path d="M3.2 9.6C1.4352 9.6 0 11.0352 0 12.8C0 14.5648 1.4352 16 3.2 16C4.9592 16 6.3896 14.5728 6.3984 12.816H6.4V11.2H9.6V12.8312H9.6032C9.62 14.5808 11.0464 16 12.8 16C14.5648 16 16 14.5648 16 12.8C16 11.0352 14.5648 9.6 12.8 9.6H11.2V6.4H12.8C14.5648 6.4 16 4.9648 16 3.2C16 1.4352 14.5648 0 12.8 0C11.0352 0 9.6 1.4352 9.6 3.2V4.8H6.4V3.184H6.3984C6.3896 1.4272 4.9592 0 3.2 0C1.4352 0 0 1.4352 0 3.2C0 4.9648 1.4352 6.4 3.2 6.4H4.8V9.6H3.2ZM4.8 12.8C4.8 13.6976 4.0968 14.4 3.2 14.4C2.3032 14.4 1.6 13.6976 1.6 12.8C1.6 11.9024 2.3032 11.2 3.2 11.2H4.8V12.8ZM12.8 11.2C13.6968 11.2 14.4 11.9024 14.4 12.8C14.4 13.6976 13.6968 14.4 12.8 14.4C11.9032 14.4 11.2 13.6976 11.2 12.8V11.2H12.8ZM11.2 3.2C11.2 2.3024 11.9032 1.6 12.8 1.6C13.6968 1.6 14.4 2.3024 14.4 3.2C14.4 4.0976 13.6968 4.8 12.8 4.8H11.2V3.2ZM3.2 4.8C2.3032 4.8 1.6 4.0976 1.6 3.2C1.6 2.3024 2.3032 1.6 3.2 1.6C4.0968 1.6 4.8 2.3024 4.8 3.2V4.8H3.2ZM6.4 6.4H9.6V9.6H6.4V6.4Z" fill="#252837"/>
</svg>
