<svg width="24" height="24" viewBox="0 0 24 24" fill="none" xmlns="http://www.w3.org/2000/svg">
<path fill-rule="evenodd" clip-rule="evenodd" d="M11.2115 4.3343C11.0602 4.54446 11 4.82669 11 5V6H9V5C9 4.50664 9.13978 3.78887 9.58847 3.1657C10.0739 2.49153 10.8741 2 12 2C13.1259 2 13.9261 2.49153 14.4115 3.1657C14.8602 3.78887 15 4.50664 15 5V6H13V5C13 4.82669 12.9398 4.54446 12.7885 4.3343C12.6739 4.17513 12.4741 4 12 4C11.5259 4 11.3261 4.17513 11.2115 4.3343Z" fill="#252837"/>
<path fill-rule="evenodd" clip-rule="evenodd" d="M8 16C8 15.4477 8.44772 15 9 15H11C11.5523 15 12 15.4477 12 16C12 16.5523 11.5523 17 11 17H9C8.44772 17 8 16.5523 8 16Z" fill="#252837"/>
<path fill-rule="evenodd" clip-rule="evenodd" d="M8 13C8 12.4477 8.44772 12 9 12H15C15.5523 12 16 12.4477 16 13C16 13.5523 15.5523 14 15 14H9C8.44772 14 8 13.5523 8 13Z" fill="#252837"/>
<path fill-rule="evenodd" clip-rule="evenodd" d="M8 10C8 9.44772 8.44772 9 9 9H15C15.5523 9 16 9.44772 16 10C16 10.5523 15.5523 11 15 11H9C8.44772 11 8 10.5523 8 10Z" fill="#252837"/>
<path fill-rule="evenodd" clip-rule="evenodd" d="M4 8C4 6.34315 5.34315 5 7 5H17C18.6569 5 20 6.34315 20 8V19C20 20.6569 18.6569 22 17 22H7C5.34315 22 4 20.6569 4 19V8ZM7 7C6.44772 7 6 7.44772 6 8V19C6 19.5523 6.44772 20 7 20H17C17.5523 20 18 19.5523 18 19V8C18 7.44772 17.5523 7 17 7H7Z" fill="#252837"/>
</svg>
