<svg width="18" height="17" viewBox="0 0 18 17" fill="none" xmlns="http://www.w3.org/2000/svg">
<path fill-rule="evenodd" clip-rule="evenodd" d="M11.3764 9.47687C13.0463 7.13367 12.8301 3.85958 10.7279 1.75736C8.38477 -0.585787 4.58578 -0.585786 2.24263 1.75736C-0.100511 4.1005 -0.100511 7.89949 2.24263 10.2426C4.34486 12.3449 7.61894 12.561 9.96215 10.8911L15.6777 16.6066L17.0919 15.1924L11.3764 9.47687ZM9.3137 3.17157C10.8758 4.73367 10.8758 7.26633 9.3137 8.82843C7.75161 10.3905 5.21895 10.3905 3.65685 8.82843C2.09475 7.26633 2.09475 4.73367 3.65685 3.17157C5.21895 1.60948 7.75161 1.60948 9.3137 3.17157Z" fill="#252837"/>
</svg>
